<?xml version="1.0" encoding="UTF-8" standalone="no"?>
<svg xmlns:rdf="http://www.w3.org/1999/02/22-rdf-syntax-ns#" xmlns="http://www.w3.org/2000/svg" height="523.12" viewBox="0 0 523.125 523.125" width="523.12" version="1.1" xmlns:cc="http://creativecommons.org/ns#" xmlns:dc="http://purl.org/dc/elements/1.1/">
<path d="m232.97 519.21c-190.72-19.15-294.2-241.06-187.06-401.16 109.39-163.47 355.11-150.4 445.3 23.67 95.31 183.96-51.3 398.28-258.24 377.49zm-83.175-41.465c3.2116-3.6578 5.8113-5.2474 8.5816-5.2474 2.3707 0 2.3918-0.33944 0.22116-3.5536-0.94351-1.3971-3.7575-5.7042-6.2533-9.5714s-5.3098-8.1743-6.2533-9.5714-1.7155-2.786-1.7155-3.0864c0-0.30046-0.52734-1.1759-1.1719-1.9455-3.4891-4.1659-4.8392-6.2657-6.735-10.475-1.4796-3.285-5.9597-4.2211-9.9587-2.0809-2.4539 1.3133-6.6379-0.91663-9.1427-4.8727-1.0584-1.6716-3.5037-4.1131-5.4341-5.4256-5.1184-3.4801-13.027-17.977-15.366-28.168-0.65095-2.8359-1.7183-6.8438-2.3718-8.9062-4.3714-13.795-5.2894-17.831-5.0722-22.3 0.49773-10.245-0.90116-15.01-2.4014-8.1793-0.95819 4.3626-1.7275 4.0847-5.9424-2.1467-2.1619-3.1962-4.7575-6.866-5.768-8.1551-2.5448-3.2465-0.79233-26.818 2.3748-31.943 0.78911-1.2768 3.2983-29.079 2.7103-30.03-0.28547-0.46188-0.0871-0.8398 0.44082-0.8398 1.837 0 2.9539-3.4883 1.9567-6.111-0.51939-1.3661-0.63452-2.9757-0.25585-3.577 0.77779-1.235 3.9349-10.092 3.9818-11.171 0.08054-1.8504-2.5777-0.37051-4.21 2.3438-2.5012 4.159-3.76 9.2315-6.1017 24.588-1.099 7.2072-2.1701 13.382-2.3801 13.722-0.97444 1.5767-3.0796 21.691-2.8832 27.549 0.12096 3.6094-0.08005 7.6172-0.4467 8.9062-3.6398 12.797-1.7489 21.694 7.0316 33.085l2.698 3.5001-0.65313 10.077-0.65313 10.077 2.783 2.0575c1.5306 1.1316 3.9042 2.3389 5.2746 2.6829 3.2499 0.81567 4.9576 3.5518 6.1319 9.825 2.8281 15.108 6.2004 24.414 10.85 29.945 1.688 2.0077 3.2272 11.349 2.1895 13.288-1.3256 2.477-1.0653 3.0602 2.1966 4.9207 1.6758 0.95583 5.021 3.3671 7.4338 5.3584s4.7869 3.6205 5.2758 3.6205c0.48888 0 1.3982 0.61371 2.0207 1.3638 1.6919 2.0386 21.541 13.471 23.61 13.599 0.3333 0.0205 1.8664-1.3982 3.407-3.1528zm34.893-18.817c0-0.7602-1.3711-2.0714-3.0469-2.9137-3.7483-1.8841-4.6537-2.9652-13.284-15.86-3.7959-5.6719-8.0025-11.335-9.348-12.585-2.5673-2.3852-3.1074-5.5215-1.4758-8.5701 2.975-5.5587 13.346 2.2398 24.049 18.083 6.7658 10.015 6.3349 9.7238 16.269 11.013 18.925 2.4559 27.123 0.85934 28.401-5.5312 0.47662-2.3831 1.2335-2.9999 5.0448-4.1112 5.6977-1.6614 5.3903-2.4992-1.8498-5.0417-6.4154-2.2529-19.077-8.6757-27.674-14.038-6.9205-4.3164-16.698-38.543-12.1-42.358 4.5224-3.7532 6.6497-2.0366 7.9566 6.4205 2.2941 14.845 3.7618 20.011 6.3261 22.266 4.4392 3.9028 8.332 1.8928 8.4543-4.3652 0.13218-6.7644 1.6118-18.399 2.4794-19.496 0.48999-0.61979 0.61666-1.9909 0.28151-3.0469-1.1419-3.5977 0.29993-5.8074 3.5815-5.489 2.6563 0.25768 3.0797 0.72927 4.0465 4.5065 6.2584 24.453 7.0119 26.793 9.7082 30.149 1.5432 1.9203 2.8058 3.9234 2.8058 4.4513 0 0.52792 1.2656 2.4013 2.8125 4.1631s2.8125 3.7184 2.8125 4.348c0 1.8895 8.0199 10.215 14.522 15.076l6.0908 4.553 13.511-0.44319c8.9305-0.29293 14.644-0.91625 16.851-1.8385 1.8367-0.76742 4.3022-1.4018 5.4789-1.4097 4.8032-0.0323 4.9221-1.263 0.79318-8.2129l-3.9069-6.5763-8.1546-1.8936c-8.9568-2.0799-18.188-3.234-24.285-3.0362-3.8366 0.12449-7.7754-2.2104-7.7754-4.6091 0-4.261 11.178-11.329 18.034-11.402 17.656-0.19032 18.856 0.17453 24.626 7.4926 2.0601 2.6124 4.5037 5.0102 5.4302 5.3282 0.92657 0.31807 4.1776 2.653 7.2246 5.1887 6.6 5.4926 7.2461 5.5479 15.658 1.3394 9.6277-4.8166 18.935-6.5118 28.13-5.1237 9.9211 1.4976 15.719 1.5583 21.834 0.22866 13.327-2.8979 17.448-3.065 23.999-0.97317 7.1686 2.289 7.8401 2.0607 12.208-4.1489 1.6216-2.3053 4.0168-5.3443 5.3228-6.7534 5.6754-6.1239 6.9182-11.776 5.7172-26.002-0.68387-8.1005 0.27002-12.062 3.9247-16.3 2.6775-3.1048 2.6834-2.8718-0.43539-17.108-1.6201-7.3952-3.8236-11.486-6.1874-11.486-0.60364 0-2.0884-1.0547-3.2994-2.3438s-2.6889-2.3438-3.2842-2.3438c-1.2847 0-14.528-10.143-14.528-11.127 0-0.72263-0.9917-2.0868-7.1856-9.8847-2.1474-2.7035-4.549-6.3592-5.3368-8.1238-0.7879-1.7646-2.2597-4.685-3.2706-6.4897-5.9167-10.562-15.235-38.315-15.423-45.938-0.23657-9.5537 1.9624-20.625 4.0965-20.625 2.3515 0 3.9085-5.9479 2.8247-10.791-2.64-11.797-2.3716-11.388-9.8412-14.981-9.4455-4.5431-14.247-9.8895-18.266-20.339-2.8942-7.5253-3.2694-8.0579-4.953-7.0312-1.9256 1.1742-4.5199-0.9816-4.5199-3.7559 0-3.5307-2.6312-0.7724-3.1753 3.3285-0.63361 4.7764-1.891 6.4106-6.8738 8.9342-2.6375 1.3358-2.9919 1.9536-2.8125 4.9031 0.29265 4.8108-2.0384 6.1644-5.8116 3.3747-3.4399-2.5432-5.7018-2.6701-5.7018-0.31984 0 2.8215 2.2085 3.9835 6.3209 3.3259 3.5633-0.5698 3.7416-0.47659 4.285 2.2405 0.34287 1.7144 1.3234 3.0751 2.4805 3.4424 2.486 0.78901 2.5068 4.341 0.0385 6.5747-2.7162 2.4581-2.3152 3.3696 1.3731 3.1212 3.7135-0.2501 4.7238 0.39058 3.9197 2.4858-1.3782 3.5916-10.206 3.4955-10.731-0.11684-0.19161-1.3184-1.4642-2.3305-3.9708-3.1577-3.7518-1.2382-6.9618-3.9647-6.9846-5.9326-0.0114-0.98678-2.6329-6.9278-6.8917-15.619-1.4715-3.0029-1.924-3.2634-5.3332-3.0711-7.2278 0.40767-9.6881-0.54951-15.028-5.8466-6.6208-6.5681-6.8715-9.7691-0.38979-4.977 4.2701 3.157 4.6283 1.0477 0.43715-2.5742-3.6878-3.187-5.1511-3.8955-5.1511-2.4942 0 0.39836-1.4766 1.5195-3.2812 2.4914-1.8047 0.97189-3.2812 2.0706-3.2812 2.4415 0 0.37094-2.0039 1.5312-4.4531 2.5783-5.2379 2.2394-15.234 3.7235-15.234 2.2618 0-2.1608 1.2286-3.9347 2.7253-3.9347 0.87296 0 1.988-0.35214 2.4778-0.78255 0.48985-0.4304 3-1.5406 5.5781-2.467 6.108-2.195 6.6126-2.7488 4.4132-4.8442-1.0102-0.96249-2.1285-2.6992-2.4851-3.8594-0.86123-2.8024-2.3969-2.6951-2.3969 0.16741 0 4.0092-2.6312 5.7204-5.153 3.3513l-2.1029-1.9755-0.53311 2.0386c-0.45794 1.7512-0.97088 1.951-3.6377 1.4171-2.9882-0.59815-6.0028-1.027-9.3966-1.3368-6.6627-0.60818-3.1174-18.105 4.7372-23.38 5.6655-3.8046 16.132-1.7426 16.854 3.3204 0.28869 2.0243 2.9817 3.0747 2.9817 1.1631 0-1.4854 3.3946-1.0891 4.7596 0.55565 0.68633 0.82698 1.327 4.1887 1.4361 7.5349 0.20536 6.3017 2.0888 10.659 4.6072 10.659 1.4562 0 1.9419-3.2949 0.60735-4.1197-1.1784-0.72828-3.314-10.514-2.6641-12.207 0.95398-2.486 3.4819-1.6782 7.0858 2.2645 4.415 4.8299 4.7738 4.7371 4.5285-1.1719-0.19891-4.7933-0.13301-4.93 2.5226-5.2329 1.4998-0.17104 3.958-1.5421 5.4628-3.0469 1.5047-1.5047 3.5529-2.7359 4.5515-2.7359 0.99859 0 2.6358-0.51219 3.6382-1.1382 1.5353-0.95883 2.1826-0.79997 4.1071 1.008 2.3983 2.2531 4.117 1.4242 3.0129-1.453-2.2058-5.7483 2.952-6.3987 6.0319-0.76054 2.6647 4.8779 3.509 5.2311 3.9221 1.6406 0.51563-4.4814 7.2113-1.9209 7.2981 2.7909 0.0164 0.89045 1.1872 2.367 2.6018 3.2812 1.4146 0.91423 3.5249 2.7169 4.6896 4.006 1.8526 2.0504 2.264 2.1663 3.2874 0.92606 0.64337-0.77972 2.4027-2.0453 3.9097-2.8125 6.0953-3.1029 6.1663-3.1788 6.1663-6.5859 0-5.4258 3.4122-7.246 7.404-3.9496 4.4514 3.676 3.4245 20.946-1.589 26.724-2.1463 2.4737-0.72359 2.9895 3.5401 1.2835 2.0943-0.83799 4.6524-1.5236 5.6847-1.5236 2.2438 0 16.081-6.8291 20.194-9.9667 1.6014-1.2214 3.2163-2.2208 3.5888-2.2208 0.37245 0 2.0201-0.99717 3.6615-2.2159 1.6414-1.2188 6.566-3.9872 10.944-6.152 4.3776-2.1648 8.6296-4.5427 9.4488-5.2841 0.81925-0.74141 1.9063-1.348 2.4157-1.348 0.50938 0 7.8871-3.5141 16.395-7.8091 9.4139-4.7524 18.197-8.4882 22.438-9.5441 12.184-3.0335 12.525-6.0059 0.62089-5.413-3.7275 0.18566-10.152 0.44125-14.277 0.56797s-7.9692 0.52151-8.5427 0.87732c-0.57351 0.35581-5.0032 0.84167-9.8438 1.0797-16.055 0.78944-21.792 1.6336-25.676 3.7784-6.1573 3.3997-25.096 8.0416-36.822 9.0254-10.455 0.87706-12.661 0.3223-17.606-4.4274-4.1518-3.9877-5.3198-4.4212-23.605-8.7603-6.8245-1.6195-14.837-3.7982-17.806-4.8416-4.1784-1.4686-8.5757-1.9947-19.467-2.329-7.7381-0.23756-21.452-0.77261-30.476-1.189-9.655-0.44554-17.09-0.40637-18.067 0.0952-1.0099 0.51824-3.6363 0.48709-6.7012-0.0795-10.569-1.9537-23.295-2.2741-26.325-0.66277-1.5469 0.82248-4.3825 1.498-6.3014 1.5012-4.4736 0.007-13.855 4.1025-13.855 6.0479 0 0.80182 0.33063 1.4578 0.73474 1.4578 2.5771 0 16.14 10.962 16.14 13.045 0 0.57356 0.48744 1.9863 1.0832 3.1395s1.3759 2.7229 1.7336 3.4883c0.3577 0.76537 2.296 2.327 4.3074 3.4703 8.9406 5.082 9.5419 5.1453 7.902 0.83206-1.4244-3.7465-1.2443-7.1491 0.34605-6.5388 2.3014 0.88311 12.753 15.339 12.753 17.639 0 1.207 0.63281 2.7198 1.4062 3.3617 1.59 1.3196 1.8897 5.2155 0.46875 6.0938-0.51562 0.31868-0.9375 1.3983-0.9375 2.3991s-0.74398 2.5636-1.6533 3.473c-0.90931 0.90931-2.6255 3.0187-3.8138 4.6875-4.5708 6.4191-6.6199 2.9743-2.9402-4.9429 3.1521-6.782 4.5866-14.03 2.6492-13.386-0.76405 0.25421-1.5515 2.642-1.9691 5.9713-0.94109 7.5023-1.0052 7.6057-5.0937 8.2191-9.55 1.4327-10.4 1.7319-11.447 4.0296-1.1889 2.6094-6.1671 5.0178-10.372 5.0178-3.5068 0-4.2491-2.2653-3.5591-10.862 0.48457-6.0366-1.9906-9.2334-3.293-4.253-0.70952 2.7132-9.8357 9.4899-12.78 9.4899-3.4508 0-4.7908 1.5977-4.7908 5.7122 0 2.2127-0.50752 3.657-1.4062 4.0018-1.8227 0.69943-1.781 2.7726 0.13081 6.5044 2.7486 5.3652 4.5868 5.6854 6.49 1.1305 0.78927-1.889 3.0115-4.3698 5.2486-5.8594 2.1339-1.4208 4.4379-2.9957 5.12-3.4997 1.5749-1.1638 3.192 0.34404 3.6213 3.3767 2.1305 15.05 2.8536 16.255 10.517 17.525 14.162 2.3467 21.738 6.5998 25.685 14.418l2.9135 5.7716-3.0757 5.7566c-5.0589 9.4684 2.847 13.845 12.336 6.8296 5.7254-4.2329 11.404 0.91126 6.4614 5.8536-2.7717 2.7717-1.6491 3.383 3.5671 1.9423 10.718-2.9602 17.513-4.019 19.166-2.9865 0.9008 0.56254 2.4498 1.0228 3.4422 1.0228 2.473 0 6.2776 4.7694 8.2624 10.358 1.6471 4.6375 3.0837 6.0579 3.0837 3.0489 0-1.5445-4.5992-14.819-7.0524-20.355-1.4113-3.1848-0.96209-4.9492 1.4554-5.7164 4.0118-1.2733 10.285 7.2375 10.285 13.954 0 3.2446 0.54208 4.4973 2.9162 6.7389 1.6039 1.5144 4.2776 4.7556 5.9416 7.2026 4.5745 6.727 5.2627 4.1774 3.1518-11.677-2.035-15.285 6.0458-13.303 10.361 2.5409 2.326 8.5403 1.693 11.495-3.6136 16.868-5.2281 5.2938-5.555 6.7793-2.7637 12.557 4.8743 10.089-3.046 14.768-9.1223 5.3894-4.5515-7.025-7.9494-8.2782-13.054-4.8143-2.6277 1.7832-4.6627 2.3438-8.5086 2.3438-3.6284 0-5.2071 0.39684-5.5945 1.4062-0.29681 0.77344-1.5769 1.4062-2.8447 1.4062s-3.1607 0.4579-4.2064 1.0176c-8.9573 4.7938-31.725-7.342-31.725-16.91 0-0.86295-1.2504-2.7669-2.7786-4.2311-4.3353-4.1535-6.065-2.1012-5.356 6.3552 0.41978 5.0072 0.0514 8.3325-1.6642 15.022-2.1435 8.3575-3.4 15.488-3.9094 22.184-0.13728 1.8047-0.63582 7.9769-1.1079 13.716-0.47205 5.7391-0.50971 12.489-0.0837 15 2.1012 12.385 2.1075 12.534 0.52888 12.534-7.3622 0-9.4325-41.373-3.1079-62.111 0.74714-2.4498 1.012-4.6684 0.58864-4.93-0.4234-0.26167-1.0476 0.78869-1.387 2.3342-0.33944 1.5455-0.99529 3.0436-1.4574 3.3292-0.78246 0.48359-1.9039 2.7601-4.4886 9.1116-2.3808 5.8505-4.2756 2.2046-5.2377-10.078-0.70505-9.0012-1.4034-10.785-3.3187-8.4772-3.3463 4.0321-5.2852 0.80791-3.3603-5.5879 0.76893-2.555 1.0533-4.9901 0.63196-5.4115-0.68103-0.68105-5.7421 4.8956-5.7421 6.3271 0 1.2683-4.1833 6.1183-5.2772 6.1183-2.2324 0-2.3365-1.9201-0.49588-9.149 3.8416-15.088 3.5979-21.814-0.58067-16.026-1.864 2.5819-4.2573 1.1209-3.5943-2.1942 0.4001-2.0005 0.23728-2.5494-0.61291-2.0662-3.0428 1.7292-4.4419 3.7242-4.4724 6.3774-0.0293 2.5516-0.95114 6.8352-3.6504 16.964-0.41223 1.5469-1.8685 6.6094-3.2361 11.25s-3.0999 10.547-3.8495 13.125c-5.3367 18.355-6.1398 31.851-2.2061 37.073 4.6322 6.1497 11.683 18.711 13.034 23.223l1.1785 3.9336-3.6656 3.2871c-2.0161 1.8079-4.8133 3.9192-6.216 4.6918s-2.9996 2.2441-3.5486 3.27c-0.64893 1.2125-1.9626 1.8653-3.7537 1.8653-4.2656 0-5.5178 3.4022-5.3739 14.601 0.14634 11.391-0.97317 39.094-1.6963 41.975-0.38642 1.5396 0.42694 3.2228 3.0414 6.294 1.9629 2.3058 3.9908 4.9117 4.5064 5.791 6.2878 10.722 14.233 20.158 18.028 21.41 7.774 2.5657 19.003 3.3688 19.003 1.3591zm182.81-47.31c0-2.9239 1.7344-5.9257 5.1714-8.9504 1.7578-1.5469 6.6397-6.1049 10.849-10.129 6.1412-5.8713 8.1388-7.2602 10.113-7.0312 4.7512 0.55091 3.6392 3.7159-3.7684 10.726-3.74 3.5391-9.2782 8.8605-12.307 11.825-5.8279 5.7047-10.058 7.2018-10.058 3.5597zm-13.038-32.193c-4.1269-1.3174-10.399-7.2848-10.399-9.8937 0-2.7843 6.4792-3.0099 7.2008-0.25068 0.46797 1.7896 4.2308 3.7535 11.08 5.7833 5.095 1.5098 6.0506 2.5719 3.8052 4.2291-2.0976 1.5482-7.0748 1.6044-11.687 0.13198zm15.851-8.1784c-0.77344-0.50786-2.9219-1.3435-4.7743-1.857-1.8524-0.51351-4.3427-1.779-5.5341-2.8123-1.1913-1.0332-2.5125-1.8786-2.936-1.8786-1.179 0-3.6306-5.2514-3.6306-7.7769 0-5.754 7.6677-7.4504 12.293-2.7196 3.1607 3.2328 3.3052 3.2899 12.447 4.9194 8.3887 1.4952 10.604 3.4622 8.4946 7.5418-2.3571 4.5581-12.199 7.3153-16.36 4.5832zm-0.75-33.923c-3.6266-3.6266 10.624-8.1253 22.594-7.1326 9.7602 0.80939 10.686 4.5076 1.1285 4.5076-3.2885 0-9.4862 0.8408-13.773 1.8684-9.2334 2.2136-8.5454 2.1612-9.95 0.75657zm-121.12-50.31c0-8.1559 18.901-13.525 24.967-7.092 4.9696 5.2693 3.9341 6.2885-5.502 5.4155-4.9625-0.45914-6.8039-0.16355-11.893 1.9091-7.48 3.0466-7.5727 3.0438-7.5727-0.23261zm56.574-4.3858c-0.30515-0.79519-0.29689-3.6428 0.0184-6.3281 0.64788-5.519 1.7489-19.156 1.7187-21.289-0.011-0.77344-0.0984-5.5628-0.19427-10.643-0.0959-5.0802 0.20032-9.6115 0.65829-10.069 1.2394-1.2394 4.9751 1.7494 4.9751 3.9802 0 1.0513 0.77694 3.0313 1.7265 4.4 3.7267 5.3713 4.1492 18.892 0.85423 27.332-0.30194 0.77344-1.2627 3.3796-2.1351 5.7915-2.4294 6.7168-6.3249 10.205-7.6218 6.8252zm-76.135-68.01c-2.3919-2.5674-2.5294-4.8039-0.48699-7.9211 1.8686-2.8518 21.462-3.6661 22.51-0.93545 2.9555 7.7019-15.998 15.324-22.023 8.8565zm44.171-26.768c-2.1513-0.9083-1.2057-2.9946 1.6406-3.6198 4.1256-0.90614 8.6089 0.28732 8.2469 2.1953-0.29747 1.5677-7.1947 2.5614-9.8875 1.4245zm-10.08-5.96c-0.31867-0.51563-0.31472-1.3658 0.008-1.8892 1.7184-2.7805 14.91-5.5843 15.767-3.3512 0.6371 1.6603-1.1334 3.3578-3.5411 3.3952-1.057 0.0164-2.7408 0.64922-3.7417 1.4062-2.0682 1.5643-7.6199 1.8512-8.4927 0.43894zm-43.486-10.413-2.1206-1.9757 1.8818-2.0087c2.5979-2.7731 6.6731-11.796 6.6842-14.799 0.01-2.5977 2.4758-4.3368 3.9953-2.8173 0.47306 0.47306 0.71892 1.858 0.54635 3.0776-0.18274 1.2917 0.38378 2.8046 1.3569 3.6238 1.594 1.3417 1.5623 1.6819-0.69123 7.413-3.7673 9.581-7.1037 11.724-11.653 7.4863zm130.7 272.89c2.0929-1.7369 13.285-4.6415 20.134-5.2252 13.603-1.1593 28.167-11.771 21.328-15.54-3.6931-2.0356-29.425-1.2546-35.328 1.0722-2.6505 1.0447-5.9496 1.8995-7.3312 1.8995s-4.2137 0.58533-6.2934 1.3007c-5.1133 1.7589-14.28 3.3868-19.072 3.3868-4.257 0-4.6774 0.45485-2.5266 2.7338 0.77072 0.8167 2.525 2.8908 3.8985 4.6092 5.1547 6.4492 20.214 9.8944 25.191 5.7633zm-267.75-15.37c-2.026-4.32-3.683-8.31-3.683-8.86 0-1.3397-3.5464-3.1782-4.7252-2.4497-1.7443 1.078-7.3882-1.5388-9.7895-4.539-1.3137-1.6414-2.8294-3.5209-3.3681-4.1768-1.522-1.8528-2.9071-0.39862-1.7247 1.8107 0.56242 1.0509 5.9425 6.9863 11.956 13.19 6.0132 6.2035 11.494 11.861 12.181 12.572 2.9442 3.0522 2.5741-0.24959-0.84597-7.5478zm160.38-168.83c0-0.77344-0.35716-1.4062-0.79369-1.4062s-2.314-1.4766-4.1723-3.2812c-3.7454-3.6375-4.409-3.9244-4.409-1.9062 0 1.7856 6.2144 8 8 8 0.75625 0 1.375-0.63281 1.375-1.4062zm-94.643-27.242c3.2761-3.9475 10.268-4.8882 10.268-1.3815 0 3.8995 1.6662 1.7212 2.6667-3.4862 3.1205-16.243 3.4616-22.872 1.2685-24.648-1.1331-0.91751-2.0602-2.104-2.0602-2.6366 0-0.98903-3.6155-3.8873-4.8493-3.8873-0.37517 0-0.80864 2.4258-0.96328 5.3906-0.32609 6.252-4.6642 8.5655-7.1176 3.7958-1.3628-2.6495-3.9448-12.632-3.9448-15.251 0-1.0566-1.9989-4.6594-4.442-8.0062-3.8109-5.2205-6.9446-8.3513-16.912-16.896-6.9407-5.9505-13.632-9.111-23.646-11.169-2.8359-0.58277-6.8438-1.8723-8.9062-2.8656-2.0625-0.99334-6.8364-2.454-10.609-3.2458-3.7723-0.79187-7.7801-1.9474-8.9062-2.568-7.4199-4.0884-19.859-1.1858-19.608 4.5755 0.2554 5.8682 3.967 10.099 3.967 4.5217 0-3.3083 4.2549-3.1225 21.094 0.921 3.6094 0.86672 8.25 1.9111 10.312 2.3208 2.0625 0.40971 5.5078 1.3988 7.6562 2.198 2.1484 0.79921 5.9019 1.7524 8.3412 2.1182 3.1428 0.47129 5.4693 1.5996 7.985 3.8724 1.9526 1.764 5.2146 4.3435 7.249 5.7322 11.056 7.5472 13.9 12.754 12.806 23.445-0.38781 3.7894-1.0828 6.1029-1.931 6.4284-2.3044 0.88429-1.4952 3.1204 1.1292 3.1204 1.4153 0 3.8758 1.248 5.8118 2.9478 1.8466 1.6213 5.1572 3.744 7.3569 4.717 7.1647 3.1693 9.5173 11.264 4.5333 15.597-2.5169 2.1884-3.1722 5.8003-1.0523 5.8003 0.7103 0 1.8369-0.65719 2.5035-1.4604zm238.32-23.62c5.8642-6.5386 14.955-22.625 16.027-28.359 0.33729-1.8047 2.5098-7.2068 4.8278-12.005 5.4776-11.338 5.3911-12.808-0.49751-8.4539-2.8055 2.0742-9.1526 3.3915-16.938 3.5152-16.056 0.2552-36.69 12.645-28.986 17.405 4.8912 3.023 14.499 3.7806 17.834 1.4062 4.1817-2.9776 10.783-3.536 12.127-1.0256 1.1681 2.1825 0.64155 3.6326-2.0147 5.5485-1.9147 1.3811-4.4969 6.9476-4.4969 9.6942 0 0.98642-0.69386 2.8524-1.5419 4.1468-2.8623 4.3684 0.44509 11.713 3.6602 8.1276zm-66.69-8.68c0.45117 0 0.82031-0.63281 0.82031-1.4062 0-1.5746-5.1651-1.9657-7.3857-0.55921-2.1932 1.3892-0.15803 3.1461 2.9291 2.5286 1.5488-0.30976 3.1851-0.56319 3.6363-0.56319zm-5.2734-19.232c0-1.2174-0.7304-1.9659-2.1094-2.1617-2.0918-0.29708-3.0592 2.3185-1.452 3.9257 1.2436 1.2436 3.5613 0.0956 3.5613-1.764zm-2.8566-16.544c1.3133-0.59839 2.3879-1.6531 2.3879-2.3438 0-1.4688-2.4318-1.6926-3.2907-0.30297-1.1544 1.8678-2.4346-0.23713-1.8269-3.0038 0.52196-2.3764 0.35535-2.7596-1.0797-2.4832-1.7183 0.33091-3.5232 5.6997-2.7064 8.0498 0.51044 1.4686 3.3953 1.5057 6.5158 0.0839zm-177.82-18.75c1.6855-0.51817 6.9589-0.80133 11.719-0.62923l8.6542 0.3129 0.30767-3.2812c0.16922-1.8047 0.95617-4.0011 1.7488-4.8808 4.1836-4.6437-1.1998-19.591-7.2708-20.187-9.4816-0.93149-18.555-2.6003-20.279-3.7299-1.6067-1.0528-6.7234-1.3958-23.438-1.5716-26.511-0.27876-30.628-1.6351-32.08-10.569l-0.55791-3.4323-2.5785 2.2635c-8.2887 7.2764-3.9512 32.732 5.5774 32.732 0.67404 0 1.2255 0.38916 1.2255 0.8648 0 0.47563 1.582 1.3827 3.5156 2.0157 1.9336 0.63299 6.4688 2.4884 10.078 4.1232 3.6094 1.6348 10.57 3.7177 15.469 4.6287 4.8984 0.91103 10.172 2.0069 11.719 2.4352 3.1875 0.88265 11.61 0.313 16.19-1.095z"/>
</svg>
